<?xml version="1.0" encoding="UTF-8" standalone="no"?>
<svg
   xmlns:dc="http://purl.org/dc/elements/1.1/"
   xmlns:cc="http://creativecommons.org/ns#"
   xmlns:rdf="http://www.w3.org/1999/02/22-rdf-syntax-ns#"
   xmlns:svg="http://www.w3.org/2000/svg"
   xmlns="http://www.w3.org/2000/svg"
   xmlns:sodipodi="http://sodipodi.sourceforge.net/DTD/sodipodi-0.dtd"
   xmlns:inkscape="http://www.inkscape.org/namespaces/inkscape"
   id="svg812"
   version="1.1"
   viewBox="0 0 200 200"
   sodipodi:docname="atom.svg"
   inkscape:version="0.92.3 (2405546, 2018-03-11)">
  <sodipodi:namedview
     pagecolor="#ffffff"
     bordercolor="#666666"
     borderopacity="1"
     objecttolerance="10"
     gridtolerance="10"
     guidetolerance="10"
     inkscape:pageopacity="0"
     inkscape:pageshadow="2"
     inkscape:window-width="3200"
     inkscape:window-height="1671"
     id="namedview9"
     showgrid="false"
     inkscape:zoom="3.337544"
     inkscape:cx="114.16118"
     inkscape:cy="45.461577"
     inkscape:window-x="0"
     inkscape:window-y="55"
     inkscape:window-maximized="1"
     inkscape:current-layer="svg812" />
  <defs
     id="defs806" />
  <metadata
     id="metadata809">
    <rdf:RDF>
      <cc:Work
         rdf:about="">
        <dc:format>image/svg+xml</dc:format>
        <dc:type
           rdf:resource="http://purl.org/dc/dcmitype/StillImage" />
        <dc:title />
      </cc:Work>
    </rdf:RDF>
  </metadata>
  <g
     id="layer1"
     transform="matrix(0.54118086,0,0,0.54118086,53.591811,17.36743)">
    <g
       id="g793"
       transform="matrix(8.4120267,0,0,8.3204155,-7975.3047,-868.85999)">
      <path
         id="path378"
         d="m 958.87656,125.83113 c -1.53516,0 -2.79688,-1.26953 -2.79688,-2.80468 0,-1.50782 1.26172,-2.79688 2.79688,-2.79688 1.55859,0 2.80468,1.28516 2.80468,2.79688 0,1.53515 -1.24609,2.80468 -2.80468,2.80468"
         style="fill:#000000;fill-opacity:1;fill-rule:nonzero;stroke:none"
         inkscape:connector-curvature="0" />
      <path
         id="path380"
         d="m 973.61874,120.97176 -0.37109,0.51953 c -1.29297,-1.40234 -2.80469,-2.80469 -4.53906,-4.125 -0.28516,-2.14844 -0.72656,-4.17187 -1.29688,-5.99219 l 0.61719,-0.0703 c 7.60938,-0.72656 9.99609,3.44531 5.58984,9.66797 m -4.64843,-0.82031 c 1.11718,0.94922 2.10156,1.93359 2.98437,2.875 -0.88281,0.96484 -1.86719,1.9375 -2.98437,2.8789 0.1289,-1.91406 0.11718,-3.82031 0,-5.7539 m -0.94141,14.60937 -0.61719,-0.0703 c 0.57032,-1.80859 1.01172,-3.85547 1.29688,-5.99219 1.73437,-1.32031 3.24609,-2.73437 4.53906,-4.11719 l 0.37109,0.51563 c 4.30469,6.07422 1.8086,10.37891 -5.58984,9.66406 m -1.21484,-7.14453 c -2.46094,1.79297 -5.14453,3.35156 -7.9375,4.57813 -2.79297,-1.22657 -5.47266,-2.78516 -7.9336,-4.57813 -0.33203,-3.05469 -0.33203,-6.125 0,-9.16797 2.46094,-1.78125 5.16016,-3.33984 7.9336,-4.57812 2.79297,1.23828 5.47656,2.79687 7.9375,4.57812 0.3125,3.04297 0.3125,6.11328 0,9.16797 m -1.39844,6.74219 c -1.27344,-0.26172 -2.61719,-0.66797 -3.99609,-1.14453 1.72265,-0.85547 3.39843,-1.82813 5.0039,-2.87891 -0.26172,1.42969 -0.59375,2.76172 -1.00781,4.02344 m -0.96484,2.46875 c -3.07813,6.7539 -8.0625,6.7539 -11.15235,0 l -0.23828,-0.58985 c 1.83203,-0.41796 3.82031,-1.02734 5.81641,-1.85937 2.01953,0.83203 3.98047,1.44141 5.83593,1.85937 -0.0742,0.19922 -0.16406,0.40235 -0.26171,0.58985 m -13.10157,-6.49219 c 1.59375,1.05078 3.25782,2.02344 4.98438,2.87891 -1.3711,0.47656 -2.69922,0.8789 -3.9961,1.14453 -0.40625,-1.26172 -0.72656,-2.59375 -0.98828,-4.02344 m -2.28125,-12.96875 c -1.73437,1.32031 -3.26172,2.72266 -4.55468,4.125 l -0.3711,-0.51953 c -4.42187,-6.22266 -1.99609,-10.39453 5.57813,-9.66797 l 0.61718,0.0703 c -0.55859,1.82032 -0.98828,3.84375 -1.26953,5.99219 m -0.27343,8.53906 c -1.11719,-0.9414 -2.10547,-1.91406 -2.98829,-2.8789 0.88282,-0.94141 1.8711,-1.92578 2.98829,-2.875 -0.13282,1.93359 -0.13282,3.83984 0,5.7539 m 0.92578,8.85547 c -7.39453,0.71485 -9.87891,-3.58984 -5.57813,-9.66406 0.10938,-0.15625 0.26172,-0.33594 0.3711,-0.51563 1.29296,1.40625 2.82031,2.79688 4.55078,4.11719 0.28515,2.13672 0.71484,4.1836 1.27343,5.99219 z m 2.61718,-23.0625 c 1.29688,0.28516 2.625,0.6875 3.9961,1.13672 -1.72656,0.85938 -3.39063,1.83203 -4.98438,2.87891 0.26172,-1.42578 0.58203,-2.75782 0.98828,-4.01563 m 0.96094,-2.45312 c 3.08985,-6.76172 8.07422,-6.76172 11.15235,0 0.0937,0.16797 0.1875,0.37109 0.26171,0.57422 -1.85546,0.41406 -3.8164,1.01953 -5.83593,1.8789 -2,-0.85937 -3.98438,-1.46484 -5.81641,-1.8789 z m 13.125,6.46875 c -1.60547,-1.04688 -3.28125,-2.01953 -5.0039,-2.87891 1.3789,-0.44922 2.72265,-0.85156 3.99609,-1.13672 0.41406,1.25781 0.74609,2.58985 1.00781,4.01563 m 1.42578,-6.40625 c -0.35547,0.0352 -0.75,0.0703 -1.11718,0.1289 -0.15235,-0.34375 -0.3086,-0.69922 -0.46485,-1.04297 -3.77734,-8.30078 -10.96875,-8.30078 -14.78906,0 -0.15234,0.34375 -0.30469,0.69922 -0.4375,1.04297 -0.37891,-0.0586 -0.77344,-0.0937 -1.11719,-0.1289 -9.35937,-0.89453 -12.86719,5.17187 -7.41015,12.8125 0.23046,0.3125 0.44531,0.60937 0.66796,0.90625 -0.22265,0.30859 -0.4375,0.61718 -0.66796,0.90234 -5.3125,7.45703 -1.71875,13.69531 7.41015,12.82813 0.34375,-0.0352 0.73828,-0.082 1.11719,-0.14063 0.13281,0.35547 0.28516,0.69922 0.4375,1.04297 3.82031,8.32422 11.01172,8.34766 14.78906,0 0.16016,-0.34375 0.3125,-0.6875 0.46485,-1.04297 0.37109,0.0586 0.76171,0.10547 1.11718,0.14063 9.10938,0.86718 12.69922,-5.3711 7.39844,-12.82813 -0.21484,-0.28516 -0.44141,-0.59375 -0.67969,-0.90234 0.23828,-0.29688 0.46485,-0.59375 0.67969,-0.90625 5.42188,-7.58203 1.89844,-13.69141 -7.39844,-12.8125"
         style="fill:#000000;fill-opacity:1;fill-rule:nonzero;stroke:none"
         inkscape:connector-curvature="0" />
    </g>
  </g>
</svg>
