<?xml version="1.0" encoding="UTF-8" standalone="no"?>
<svg
   xmlns:dc="http://purl.org/dc/elements/1.1/"
   xmlns:cc="http://creativecommons.org/ns#"
   xmlns:rdf="http://www.w3.org/1999/02/22-rdf-syntax-ns#"
   xmlns:svg="http://www.w3.org/2000/svg"
   xmlns="http://www.w3.org/2000/svg"
   xmlns:sodipodi="http://sodipodi.sourceforge.net/DTD/sodipodi-0.dtd"
   xmlns:inkscape="http://www.inkscape.org/namespaces/inkscape"
   id="svg812"
   version="1.1"
   viewBox="0 0 200 200"
   sodipodi:docname="circuit.svg"
   inkscape:version="0.92.3 (2405546, 2018-03-11)">
  <sodipodi:namedview
     pagecolor="#ffffff"
     bordercolor="#666666"
     borderopacity="1"
     objecttolerance="10"
     gridtolerance="10"
     guidetolerance="10"
     inkscape:pageopacity="0"
     inkscape:pageshadow="2"
     inkscape:window-width="3200"
     inkscape:window-height="1671"
     id="namedview9"
     showgrid="false"
     inkscape:zoom="3.337544"
     inkscape:cx="114.16118"
     inkscape:cy="45.461577"
     inkscape:window-x="0"
     inkscape:window-y="55"
     inkscape:window-maximized="1"
     inkscape:current-layer="svg812" />
  <defs
     id="defs806" />
  <metadata
     id="metadata809">
    <rdf:RDF>
      <cc:Work
         rdf:about="">
        <dc:format>image/svg+xml</dc:format>
        <dc:type
           rdf:resource="http://purl.org/dc/dcmitype/StillImage" />
        <dc:title></dc:title>
      </cc:Work>
    </rdf:RDF>
  </metadata>
  <path
     inkscape:connector-curvature="0"
     id="path386"
     d="m 111.71012,44.437182 c 5.95047,0 10.78446,-4.879845 10.78446,-10.921548 0,-6.026196 -4.83399,-10.9215 -10.78446,-10.9215 -1.02483,0 -2.00385,0.201464 -2.93705,0.46476 L 95.541058,8.5588043 93.429924,-0.33333509 C 89.865892,-0.2248328 84.756589,10.929007 84.756589,10.929007 L 61.611823,31.36235 33.862917,0.90599473 C 30.986963,3.0903113 28.141946,5.3520703 25.34234,7.6757857 L 73.987384,61.028575 v 76.187305 h 66.175336 c 1.85114,3.23775 5.29296,5.45302 9.27014,5.45302 5.95085,0 10.78447,-4.87984 10.78447,-10.90604 0,-6.0417 -4.84888,-10.9215 -10.78447,-10.9215 -3.97718,0 -7.419,2.19977 -9.27014,5.45302 H 84.756589 V 56.876872 l 0.06267,-0.04634 -0.06267,-0.0773 V 55.343484 H 83.471726 L 68.923911,39.387126 87.938395,22.594343 h 5.736252 l 7.587373,8.34993 c -0.1997,0.82105 -0.32109,1.673068 -0.32109,2.571562 0,6.041709 4.80345,10.921538 10.76919,10.921538"
     style="fill:#000000;fill-opacity:1;fill-rule:nonzero;stroke:none;stroke-width:3.94087195" />
  <path
     inkscape:connector-curvature="0"
     id="path388"
     d="m 100.94093,109.91983 c 3.97716,0 7.419,-2.21527 9.27011,-5.46851 h 23.05274 v -0.13962 l 4.84929,-0.0928 c 0,0 1.77436,-1.54919 2.67701,-2.35471 4.63506,-4.089773 9.42285,-8.318969 13.92047,-12.284817 l 16.27598,17.830777 v 51.61771 h 3.94662 l 12.78871,14.05083 c 2.35553,-2.78845 4.60453,-5.70089 6.74583,-8.70622 L 181.77098,150.4611 v -18.71374 h 6.86843 c 1.88168,3.2532 2.12641,5.59239 6.11884,5.59239 5.95088,0 3.65606,-5.71634 3.65606,-11.75805 0,-6.01072 2.81486,-10.31733 -3.12034,-10.31733 -3.99282,0 -4.77288,2.32371 -6.65456,5.57694 h -6.86843 v -16.37455 h -0.19971 l 0.81064,-0.63516 -19.53456,-21.424771 c 2.17226,-1.93642 4.17612,-3.686976 5.91994,-5.236121 h 7.61793 V 1.8509825 c -3.59455,-2.41668405 -7.20479,9.4807895 -10.78446,7.0486323 V 1.324273 H 133.26261 V 45.93986 c -3.19707,1.889955 -5.38459,5.375563 -5.38459,9.403349 0,6.026196 4.81873,10.906016 10.78446,10.906016 5.9356,0 10.76919,-4.87982 10.76919,-10.906016 0,-4.027786 -2.18752,-7.513394 -5.38459,-9.403349 V 22.594134 h 21.55368 v 42.95799 l -32.33815,29.185992 v -1.192843 h -23.05273 c -1.85112,-3.253213 -5.29296,-5.468474 -9.27013,-5.468474 -5.965734,0 -10.78446,4.895301 -10.78446,10.921498 0,6.041693 4.818726,10.921533 10.78446,10.921533"
     style="fill:#000000;fill-opacity:1;fill-rule:nonzero;stroke:none;stroke-width:3.94087195" />
  <path
     inkscape:connector-curvature="0"
     id="path390"
     d="m 47.049125,180.87097 c 3.977151,0 7.418993,-2.23076 9.270119,-5.45301 h 17.66814 v 16.35905 h 36.269496 c 0,0 15.51154,8.96958 19.3814,7.68379 l -12.5283,-16.26609 v -2.32374 H 84.771866 v -21.84303 h 47.038674 l 12.55921,13.78744 c -0.18395,0.83657 -0.3211,1.68863 -0.3211,2.60258 0,6.02622 4.80346,10.90603 10.7692,10.90603 5.95085,0 10.76921,-4.8953 10.76921,-10.90603 0,-6.04166 -4.81836,-10.9215 -10.76921,-10.9215 -1.02484,0 -2.00386,0.18609 -2.93706,0.44925 l -13.21674,-14.50007 v -2.33921 H 73.98778 v 16.39003 H 56.319638 c -1.851133,-3.25321 -5.292955,-5.46852 -9.270125,-5.46852 -5.950461,0 -10.784461,4.89535 -10.784461,10.92153 0,6.02621 4.834,10.9215 10.784461,10.9215"
     style="fill:#000000;fill-opacity:1;fill-rule:nonzero;stroke:none;stroke-width:3.94087195" />
  <path
     inkscape:connector-curvature="0"
     id="path392"
     d="M 13.242452,28.945646 28.126661,45.273723 12.737674,66.868896 c -1.071042,-0.356132 -2.202788,-0.619671 -3.4112913,-0.619671 -2.7995882,0 -5.3082331,1.115392 -7.2204419,2.865944 -0.6116961,4.988265 -0.9484813,9.976521 -1.040114,14.980279 1.9733097,2.432184 4.9103672,3.996801 8.2605559,3.996801 5.9504803,0 10.7844793,-4.895291 10.7844793,-10.921477 0,-0.588697 -0.09003,-1.177383 -0.199716,-1.735053 L 35.57543,53.468715 52.432943,71.950111 V 131.74739 H 25.494667 V 104.4668 H 2.1051459 c 0.4589614,3.65599 1.0252365,7.31201 1.7594923,10.90604 H 14.725467 V 142.6689 H 63.21741 V 67.782909 l 0.04707,-0.04645 -0.04707,-0.06182 V 66.249416 H 61.917267 L 18.473146,18.597519 c -1.896941,3.361633 -3.656039,6.816272 -5.23147,10.348316"
     style="fill:#000000;fill-opacity:1;fill-rule:nonzero;stroke:none;stroke-width:3.94087195" />
</svg>
