<?xml version="1.0" encoding="UTF-8" standalone="no"?>
<svg
   xmlns:dc="http://purl.org/dc/elements/1.1/"
   xmlns:cc="http://creativecommons.org/ns#"
   xmlns:rdf="http://www.w3.org/1999/02/22-rdf-syntax-ns#"
   xmlns:svg="http://www.w3.org/2000/svg"
   xmlns="http://www.w3.org/2000/svg"
   xmlns:sodipodi="http://sodipodi.sourceforge.net/DTD/sodipodi-0.dtd"
   xmlns:inkscape="http://www.inkscape.org/namespaces/inkscape"
   id="svg812"
   version="1.1"
   viewBox="0 0 200 200"
   sodipodi:docname="skull.svg"
   inkscape:version="0.92.3 (2405546, 2018-03-11)">
  <sodipodi:namedview
     pagecolor="#ffffff"
     bordercolor="#666666"
     borderopacity="1"
     objecttolerance="10"
     gridtolerance="10"
     guidetolerance="10"
     inkscape:pageopacity="0"
     inkscape:pageshadow="2"
     inkscape:window-width="3200"
     inkscape:window-height="1671"
     id="namedview9"
     showgrid="false"
     inkscape:zoom="3.337544"
     inkscape:cx="114.16118"
     inkscape:cy="45.461577"
     inkscape:window-x="0"
     inkscape:window-y="55"
     inkscape:window-maximized="1"
     inkscape:current-layer="svg812" />
  <defs
     id="defs806" />
  <metadata
     id="metadata809">
    <rdf:RDF>
      <cc:Work
         rdf:about="">
        <dc:format>image/svg+xml</dc:format>
        <dc:type
           rdf:resource="http://purl.org/dc/dcmitype/StillImage" />
        <dc:title></dc:title>
      </cc:Work>
    </rdf:RDF>
  </metadata>
  <g
     id="layer1"
     transform="matrix(0.55075229,0,0,0.55075229,39.221401,27.749795)">
    <path
       style="fill:#000000;fill-opacity:1;fill-rule:nonzero;stroke:none;stroke-width:8.50460625"
       d="m 148.23608,142.92246 c -14.43032,0 -26.12165,-11.56394 -26.12165,-25.83709 0,-14.24018 11.69133,-25.80402 26.12165,-25.80402 14.43032,0 26.1208,11.56384 26.1208,25.80402 0,14.27315 -11.69048,25.83709 -26.1208,25.83709 m -31.80058,39.25116 h -15.16486 c -3.975499,0 -6.54773,-4.16303 -4.776758,-7.66522 l 7.582428,-15.00006 c 0.96887,-1.94935 2.90574,-2.94049 4.77677,-2.94049 1.90351,0 3.80788,0.99114 4.77675,2.94049 l 7.61578,15.00006 c 1.77012,3.50219 -0.83802,7.66522 -4.81011,7.66522 M 69.470061,142.92246 c -14.396962,0 -26.088297,-11.56394 -26.088297,-25.83709 0,-14.24018 11.691335,-25.80402 26.088297,-25.80402 14.463677,0 26.121657,11.56384 26.121657,25.80402 0,14.27315 -11.65798,25.83709 -26.121657,25.83709 M 108.85308,40.53233 c -54.080131,0 -98.072887,43.513308 -98.072887,97.00463 0,24.41639 9.586607,30.0661 24.251229,35.94724 4.308999,1.71803 9.085754,3.66737 14.330265,6.77313 v 23.12777 c 0,4.6256 3.807893,8.42518 8.483746,8.42518 H 159.85987 c 4.71004,0 8.51793,-3.79958 8.51793,-8.42518 v -23.12777 c 5.24452,-3.10576 10.02127,-5.0551 14.33028,-6.77313 14.66375,-5.88114 24.25061,-11.53085 24.25061,-35.94724 0,-53.491322 -43.99214,-97.00463 -98.10561,-97.00463"
       id="path354"
       inkscape:connector-curvature="0" />
    <path
       style="fill:#000000;fill-opacity:1;fill-rule:nonzero;stroke:none;stroke-width:8.50460625"
       d="m 263.0099,1.0828299 c -5.17696,-5.0880958 -12.19245,-7.202639 -18.83937,-6.3766145 0.83803,-6.6079444 -1.33571,-13.5462684 -6.48017,-18.6344504 -8.85231,-8.755476 -23.21592,-8.755476 -32.03403,0 -8.31783,8.226923 -8.81894,21.2445556 -1.50331,30.0331041 L 169.58011,40.300999 c 11.55794,7.070521 21.71261,16.057329 30.09716,26.563986 l 32.93534,-32.577156 c 8.88564,7.202643 22.0803,6.706993 30.39729,-1.486861 8.81895,-8.755472 8.81895,-22.9625772 0,-31.7181381"
       id="path356"
       inkscape:connector-curvature="0" />
    <path
       style="fill:#000000;fill-opacity:1;fill-rule:nonzero;stroke:none;stroke-width:8.50460625"
       d="m 263.0099,219.54155 c -8.35035,-8.22691 -21.51165,-8.72248 -30.39729,-1.51984 l -33.36975,-33.00666 c -3.27343,1.7511 -6.61356,3.2048 -9.92122,4.52639 -1.13561,0.46266 -2.30456,0.92515 -3.44018,1.38772 v 12.45594 c 0,6.83928 -2.70564,13.08377 -7.14802,17.67632 l 25.41958,25.14316 c -7.31563,8.78864 -6.81452,21.80628 1.50331,30.03311 8.81811,8.75557 23.18172,8.75557 32.03403,0 5.14446,-5.08809 7.31563,-12.02642 6.48017,-18.63436 6.64692,0.82636 13.69576,-1.28853 18.83937,-6.3767 8.81895,-8.75548 8.81895,-22.96258 0,-31.68508"
       id="path358"
       inkscape:connector-curvature="0" />
    <path
       style="fill:#000000;fill-opacity:1;fill-rule:nonzero;stroke:none;stroke-width:8.50460625"
       d="M 48.15852,40.300999 13.619825,6.1048691 c 7.281431,-8.7885485 6.780324,-21.8061811 -1.53667,-30.0331041 -8.8521302,-8.755476 -23.182226,-8.755476 -32.034189,0 -5.144124,5.088182 -7.281945,12.026506 -6.480261,18.6344504 -6.680701,-0.8263646 -13.662067,1.2885187 -18.839623,6.3766145 -8.818527,8.7555609 -8.818527,22.9626661 0,31.6851501 8.350941,8.226842 21.478466,8.755475 30.397215,1.519849 L 18.062223,66.864985 C 26.446771,56.358328 36.601441,47.37152 48.15852,40.300999"
       id="path360"
       inkscape:connector-curvature="0" />
    <path
       style="fill:#000000;fill-opacity:1;fill-rule:nonzero;stroke:none;stroke-width:8.50460625"
       d="m 39.006065,221.06142 c -4.442399,-4.59255 -7.181379,-10.80406 -7.181379,-17.67632 v -12.45594 c -1.102264,-0.46265 -2.237877,-0.89207 -3.374346,-1.38772 -3.306785,-1.32159 -6.680273,-2.77529 -9.953708,-4.52639 l -33.370335,33.03973 c -8.918749,-7.23571 -22.079707,-6.74014 -30.397215,1.45371 -8.851874,8.78863 -8.851874,22.96266 0,31.71814 5.177556,5.08817 12.158922,7.20272 18.873059,6.3767 -0.835464,6.64101 1.302701,13.57934 6.446825,18.63436 8.851963,8.75557 23.1820588,8.75557 32.034189,0 8.316994,-8.22683 8.818101,-21.24447 1.503318,-30.03311 z m 0,0"
       id="path362"
       inkscape:connector-curvature="0" />
  </g>
</svg>
