<?xml version="1.0" encoding="UTF-8" standalone="no"?>
<svg
   xmlns:dc="http://purl.org/dc/elements/1.1/"
   xmlns:cc="http://creativecommons.org/ns#"
   xmlns:rdf="http://www.w3.org/1999/02/22-rdf-syntax-ns#"
   xmlns:svg="http://www.w3.org/2000/svg"
   xmlns="http://www.w3.org/2000/svg"
   xmlns:sodipodi="http://sodipodi.sourceforge.net/DTD/sodipodi-0.dtd"
   xmlns:inkscape="http://www.inkscape.org/namespaces/inkscape"
   id="svg812"
   version="1.1"
   viewBox="0 0 200 200"
   sodipodi:docname="tools.svg"
   inkscape:version="0.92.3 (2405546, 2018-03-11)">
  <sodipodi:namedview
     pagecolor="#ffffff"
     bordercolor="#666666"
     borderopacity="1"
     objecttolerance="10"
     gridtolerance="10"
     guidetolerance="10"
     inkscape:pageopacity="0"
     inkscape:pageshadow="2"
     inkscape:window-width="3200"
     inkscape:window-height="1671"
     id="namedview9"
     showgrid="false"
     inkscape:zoom="3.337544"
     inkscape:cx="114.16118"
     inkscape:cy="45.461577"
     inkscape:window-x="0"
     inkscape:window-y="55"
     inkscape:window-maximized="1"
     inkscape:current-layer="svg812" />
  <defs
     id="defs806" />
  <metadata
     id="metadata809">
    <rdf:RDF>
      <cc:Work
         rdf:about="">
        <dc:format>image/svg+xml</dc:format>
        <dc:type
           rdf:resource="http://purl.org/dc/dcmitype/StillImage" />
        <dc:title></dc:title>
      </cc:Work>
    </rdf:RDF>
  </metadata>
  <g
     id="layer1"
     transform="matrix(0.45341305,0,0,0.43810561,56.243616,62.935715)"
     inkscape:transform-center-x="54.229509"
     inkscape:transform-center-y="63.933">
    <path
       style="fill:#000000;fill-opacity:1;fill-rule:nonzero;stroke:none;stroke-width:10.25843906"
       d="m 33.739891,-19.377299 c 7.453435,-18.173074 3.183147,-38.936634 -10.838757,-52.765588 L -2.4019861,-97.210699 c -10.7985469,-10.640681 -28.3253779,-10.640681 -39.0836649,0 -2.941789,2.909338 -2.941789,7.651852 0,10.521272 l 39.5261726,39.13588 c 5.4802061,5.420037 5.4802061,14.267509 0,19.687546 l -14.1827936,14.028346 c -5.479231,5.4200367 -14.383943,5.3801192 -19.904408,0 l -39.526173,-39.135929 c -2.940715,-2.909191 -7.69582,-2.909191 -10.676794,0 -10.758287,10.680746 -10.758287,28.01692 0,38.657602 l 25.343379,25.067812 c 14.021856,13.868823 34.973194,18.093289 53.34688,10.720469 6.96969276,-2.829649 15.552626,-0.836607 21.35466,4.862071 32.635876,32.20142 107.055828,105.81029 139.611288,138.05159 5.76182,5.69897 7.77628,14.18772 4.87578,21.12218 -7.41425,18.17308 -3.14289,38.89677 10.83876,52.76574 l 25.34337,25.06766 c 10.75829,10.64083 28.28512,10.64083 39.08362,0 2.94077,-2.90933 2.94077,-7.6518 0,-10.56114 l -39.60762,-39.13588 c -5.43897,-5.42003 -5.43897,-14.22759 0,-19.60776 l 14.22301,-14.06821 c 5.48025,-5.42004 14.46543,-5.42004 19.90441,0 l 39.5674,39.13588 c 2.90051,2.86942 7.6948,2.86942 10.63659,0 10.75828,-10.6806 10.75828,-28.01678 0,-38.6576 L 252.9285,155.37916 c -13.98165,-13.86897 -34.97427,-18.09339 -53.34688,-10.7604 -6.93051,2.82954 -15.55263,0.87639 -21.31445,-4.86207 L 38.695119,1.7051131 C 32.933295,-3.9939557 30.918781,-12.482707 33.739891,-19.377299"
       id="path368"
       inkscape:connector-curvature="0" />
    <path
       style="fill:#000000;fill-opacity:1;fill-rule:nonzero;stroke:none;stroke-width:10.25843906"
       d="m 31.846106,181.28373 -58.705431,58.06621 c -3.142888,3.10849 -8.3405,3.14835 -11.563858,0 -3.142938,-3.1485 -3.102679,-8.28951 0,-11.43796 l 58.74564,-58.06607 c 3.142889,-3.10858 8.340501,-3.1485 11.523649,0 3.223357,3.14836 3.183147,8.28946 0,11.43782 m -93.840588,34.71212 c -3.183147,-3.14836 -3.142888,-8.28946 0,-11.39795 l 58.745641,-58.06618 c 3.10267832,-3.10858 8.3002904,-3.18826 11.5236482,0 3.1831478,3.14837 3.1428888,8.28947 0,11.39804 l -58.7054302,58.06609 c -3.142889,3.1485 -8.340501,3.18827 -11.563859,0 M 42.080391,68.339719 c -3.142888,-3.108583 -8.260031,-3.108583 -11.402969,0 l -16.156999,15.98107 c -3.142937,3.148471 -3.102727,8.289476 0,11.398055 v 0.04099 c 3.022209,2.949123 3.022209,7.811186 0,10.800196 l -3.062468,3.06868 c -3.0211845,2.94912 -7.8969682,2.94912 -10.91922612,0 v -0.041 c -3.18309878,-3.14846 -8.38071088,-3.18825 -11.52364788,0 l -68.173331,67.39175 c -20.227261,20.0063 -20.227261,52.44689 0,72.45324 l 6.969693,6.89459 c 20.187002,19.96643 53.0251,19.92656 73.2512877,-0.039 L 69.196876,188.9365 c 1.530721,-1.51447 2.416762,-3.58676 2.416762,-5.73888 0,-2.11221 -0.84583,-4.1846 -2.416762,-5.69898 -2.981999,-2.98897 -2.981999,-7.85119 0,-10.8003 l 3.102678,-3.06866 c 3.021184,-2.98901 7.937227,-2.98901 10.918152,0 3.183148,3.18827 8.34055,3.18827 11.563908,0 L 110.8984,147.68839 c 3.18315,-3.14837 3.18315,-8.16991 0,-11.27849 C 89.181704,114.88921 63.837349,89.86134 42.080391,68.340646"
       id="path370"
       inkscape:connector-curvature="0" />
    <path
       style="fill:#000000;fill-opacity:1;fill-rule:nonzero;stroke:none;stroke-width:10.25843906"
       d="m 177.62253,-26.152284 c 0.52606,0.558063 0.52606,1.394866 0,1.873045 L 102.11539,50.40571 129.03071,77.027692 204.53782,2.3825385 c 0.48457,-0.5182924 1.32957,-0.5182924 1.85358,0 0.23716,0.2386262 0.60857,0.5182923 0.92835,0.7172452 8.66232,6.4561826 21.03283,4.7025967 27.55996,-3.86579447 L 284.64022,-65.926062 c 2.458,-3.188272 2.17536,-7.691721 -0.72208,-10.521223 l -26.59243,-26.342975 c -2.90158,-2.82955 -7.45451,-3.1484 -10.71808,-0.75706 l -65.87729,49.218787 c -8.66336,6.456183 -10.43544,18.691123 -3.82778,27.418989 0.16494,0.278641 0.44358,0.558063 0.68074,0.757016"
       id="path372"
       inkscape:connector-curvature="0" />
  </g>
</svg>
